<?xml version="1.0" encoding="utf-8"?>
<!-- Generator: Adobe Illustrator 26.3.1, SVG Export Plug-In . SVG Version: 6.00 Build 0)  -->
<svg version="1.1" xmlns="http://www.w3.org/2000/svg" xmlns:xlink="http://www.w3.org/1999/xlink" x="0px" y="0px"
	 viewBox="0 0 1788.7 1788.7" style="enable-background:new 0 0 1788.7 1788.7;" xml:space="preserve">
<style type="text/css">
	.st1{fill-rule:evenodd;clip-rule:evenodd;fill:#FFFFFF;stroke:#A43939;}
</style>
<linearGradient id="a1" gradientUnits="userSpaceOnUse" x1="894.3619" y1="-11.0359" x2="894.3619" y2="1776.688" gradientTransform="matrix(1 0 0 -1 0 1777.188)">
	<stop  offset="0" style="stop-color:#6D3EFB"/>
	<stop  offset="1" style="stop-color:#B50BEB"/>
</linearGradient>
<path style="fill:url(#a1);stroke:#A43939;stroke-linejoin:round;" d="
	M400.5,0.5h987.7c220.9,0,400,179.1,400,400v987.7c0,220.9-179.1,400-400,400H400.5c-220.9,0-400-179.1-400-400V400.5
	C0.5,179.6,179.6,0.5,400.5,0.5z"/>
<path class="st1" d="M309.1,1494.6v-1112c0,0,1.1-36.5,41-46s316-73,316-73s47-13.9,47,29v448l362-107v-249
	c0,0-0.5-39.9,39-49s316-71,316-71s49-14.1,49,27v1124c0,0-0.4,32.8-42,43s-323,72-323,72s-39,8.4-39-25v-457l-361,113v255
	c0,0-1.8,32.9-41,42s-325,72-325,72S309.1,1543.1,309.1,1494.6z"/>
</svg>
